<svg xmlns="http://www.w3.org/2000/svg" width="1440" height="900" viewBox="0 0 1440 900" role="img" aria-labelledby="title desc">
  <title id="title">从 A 股事实到可复核结论，闭合整条研究链</title>
  <desc id="desc">不是角色堆叠，而是以证据 ID、显式边界和不可变账本连接数据、研究、约束与验证。</desc>
  <defs>
    <linearGradient id="bgGradient" x1="0" y1="0" x2="1" y2="1">
      <stop offset="0" stop-color="#091727" />
      <stop offset=".48" stop-color="#07111E" />
      <stop offset="1" stop-color="#050C16" />
    </linearGradient>
    <radialGradient id="ambient" cx="0" cy="0" r="1" gradientTransform="translate(1160 40) rotate(135) scale(600 420)">
      <stop offset="0" stop-color="#38BDF8" stop-opacity=".16" />
      <stop offset=".62" stop-color="#38BDF8" stop-opacity=".025" />
      <stop offset="1" stop-color="#38BDF8" stop-opacity="0" />
    </radialGradient>
    <linearGradient id="activeNav" x1="0" y1="0" x2="1" y2="1">
      <stop offset="0" stop-color="#38BDF8" stop-opacity=".30" />
      <stop offset="1" stop-color="#38BDF8" stop-opacity=".08" />
    </linearGradient>
    <filter id="shadow" x="-20%" y="-20%" width="150%" height="170%">
      <feDropShadow dx="0" dy="16" stdDeviation="20" flood-color="#000000" flood-opacity=".34" />
    </filter>
    <filter id="softGlow" x="-100%" y="-100%" width="300%" height="300%">
      <feGaussianBlur stdDeviation="7" result="blur" />
      <feMerge><feMergeNode in="blur" /><feMergeNode in="SourceGraphic" /></feMerge>
    </filter>
    <pattern id="grid" width="32" height="32" patternUnits="userSpaceOnUse">
      <path d="M32 0H0V32" fill="none" stroke="#6D87A3" stroke-width=".55" opacity=".12" />
    </pattern>
    <marker id="arrow" markerWidth="11" markerHeight="11" refX="9" refY="5.5" orient="auto" markerUnits="strokeWidth">
      <path d="M0 0L11 5.5L0 11Z" fill="context-stroke" />
    </marker>
    <style>
      text { font-family: Geist, "Plus Jakarta Sans", "Noto Sans SC", "Microsoft YaHei", sans-serif; }
      .eyebrow { font-size: 13px; font-weight: 760; letter-spacing: 1.8px; }
      .title { font-size: 34px; font-weight: 760; letter-spacing: -.5px; }
      .subtitle { font-size: 16px; font-weight: 480; }
      .micro { font-size: 11px; font-weight: 760; letter-spacing: 1.25px; }
      .cardTitle { font-size: 20px; font-weight: 720; }
      .body { font-size: 14px; font-weight: 490; }
      .small { font-size: 12px; font-weight: 520; }
      .mono { font-size: 12px; font-weight: 680; font-family: Geist Mono, "Noto Sans Mono CJK SC", monospace; }
      .metric { font-size: 28px; font-weight: 780; letter-spacing: -.5px; }
      .nav { font-size: 13px; font-weight: 680; }
      .navNum { font-size: 12px; font-weight: 800; }
    </style>
  </defs>
  <rect width="1440" height="900" fill="#07111E" />
  <rect width="1440" height="900" fill="url(#bgGradient)" />
  <rect width="1440" height="900" fill="url(#ambient)" />
  <rect width="1440" height="900" fill="url(#grid)" />
  <rect x="64" y="42" width="42" height="4" rx="2" fill="#38BDF8" filter="url(#softGlow)" />
  <text x="64" y="72" class="eyebrow" fill="#38BDF8">OPENALPHA CN · RESEARCH OS / 01</text>
  <text x="64" y="115" class="title" fill="#F4F7FB">研究操作系统总览｜从 A 股事实到可复核结论，闭合整条研究链</text>
  <text x="64" y="148" class="subtitle" fill="#96A8BE">不是角色堆叠，而是以证据 ID、显式边界和不可变账本连接数据、研究、约束与验证。</text>
  <g transform="translate(1210 50)" opacity=".92">
    <circle cx="44" cy="30" r="28" fill="#38BDF8" opacity=".09" />
    <path d="M18 42L40 20L56 32L75 11" fill="none" stroke="#38BDF8" stroke-width="2.2" />
    <circle cx="18" cy="42" r="4" fill="#38BDF8" /><circle cx="40" cy="20" r="4" fill="#38BDF8" />
    <circle cx="56" cy="32" r="4" fill="#38BDF8" /><circle cx="75" cy="11" r="4" fill="#38BDF8" />
  </g>
  <line x1="898" y1="171" x2="938" y2="171" stroke="#2DD4BF" stroke-width="2.2" marker-end="url(#arrow)" />
  <text x="948" y="175" class="small" fill="#96A8BE" text-anchor="start" opacity="1">自动执行 / 持久化</text>
  <line x1="1108" y1="171" x2="1148" y2="171" stroke="#FBBF24" stroke-width="2.2" stroke-dasharray="7 7" marker-end="url(#arrow)" />
  <text x="1158" y="175" class="small" fill="#96A8BE" text-anchor="start" opacity="1">显式组合 / 人工反馈</text>
  <circle cx="76" cy="210" r="14" fill="#2DD4BF" fill-opacity=".16" stroke="#2DD4BF" stroke-opacity=".45" />
  <text x="76" y="214" class="navNum" fill="#2DD4BF" text-anchor="middle" opacity="1">A</text>
  <text x="100" y="214" class="micro" fill="#2DD4BF" text-anchor="start" opacity="1">数据与治理底座</text>
  <rect x="64" y="232" width="275" height="438" rx="22" fill="#0C1928" stroke="#263A52" filter="url(#shadow)" />
  <rect x="65" y="233" width="273" height="436" rx="21" fill="none" stroke="#FFFFFF" stroke-opacity=".035" />
  <rect x="64" y="254" width="3" height="394" rx="1.5" fill="#2DD4BF" />
  <text x="88" y="261" class="micro" fill="#2DD4BF" text-anchor="start" opacity="1">DATA PLANE</text>
  <text x="88" y="294" class="cardTitle" fill="#F4F7FB" text-anchor="start" opacity="1">A 股证据入口</text>
  <text x="88" y="323" class="body" fill="#96A8BE" text-anchor="start" opacity="1">链邻数据接口 API</text>
  <text x="88" y="347" class="body" fill="#96A8BE" text-anchor="start" opacity="1">已实现 · 统一替代入口</text>
  <text x="88" y="371" class="body" fill="#96A8BE" text-anchor="start" opacity="1">用户授权实时 A 股数据</text>
  <text x="88" y="395" class="body" fill="#96A8BE" text-anchor="start" opacity="1">用户自有 CSV / JSONL / Parquet</text>
  <text x="88" y="419" class="body" fill="#96A8BE" text-anchor="start" opacity="1">Provider 合同 · 鉴权 · 限流</text>
  <text x="88" y="443" class="body" fill="#96A8BE" text-anchor="start" opacity="1">来源 / 许可 / 修订语义</text>
  <rect x="88" y="624" width="220" height="28" rx="14" fill="#2DD4BF" fill-opacity="0.12" stroke="#2DD4BF" stroke-opacity=".38" />
  <text x="198.0" y="643" class="small" fill="#2DD4BF" text-anchor="middle" opacity="1">输入不等于证据</text>
  <circle cx="385" cy="210" r="14" fill="#A78BFA" fill-opacity=".16" stroke="#A78BFA" stroke-opacity=".45" />
  <text x="385" y="214" class="navNum" fill="#A78BFA" text-anchor="middle" opacity="1">B</text>
  <text x="409" y="214" class="micro" fill="#A78BFA" text-anchor="start" opacity="1">五级专业流水线</text>
  <rect x="374" y="244" width="322" height="174" rx="22" fill="#0C1928" stroke="#263A52" filter="url(#shadow)" />
  <rect x="375" y="245" width="320" height="172" rx="21" fill="none" stroke="#FFFFFF" stroke-opacity=".035" />
  <rect x="374" y="266" width="3" height="130" rx="1.5" fill="#2DD4BF" />
  <text x="398" y="273" class="micro" fill="#2DD4BF" text-anchor="start" opacity="1">01 / 证据成像</text>
  <text x="398" y="306" class="cardTitle" fill="#F4F7FB" text-anchor="start" opacity="1">EvidenceSnapshot</text>
  <text x="398" y="335" class="body" fill="#96A8BE" text-anchor="start" opacity="1">四时钟 PIT</text>
  <text x="398" y="359" class="body" fill="#96A8BE" text-anchor="start" opacity="1">内容寻址 · 来源与许可</text>
  <rect x="716" y="244" width="322" height="174" rx="22" fill="#0C1928" stroke="#263A52" filter="url(#shadow)" />
  <rect x="717" y="245" width="320" height="172" rx="21" fill="none" stroke="#FFFFFF" stroke-opacity=".035" />
  <rect x="716" y="266" width="3" height="130" rx="1.5" fill="#A78BFA" />
  <text x="740" y="273" class="micro" fill="#A78BFA" text-anchor="start" opacity="1">02 / 研究编排</text>
  <text x="740" y="306" class="cardTitle" fill="#F4F7FB" text-anchor="start" opacity="1">ResearchRunResult</text>
  <text x="740" y="335" class="body" fill="#96A8BE" text-anchor="start" opacity="1">持久批量队列 · 1–32 并发</text>
  <text x="740" y="359" class="body" fill="#96A8BE" text-anchor="start" opacity="1">ResearchEngine.run_cycle</text>
  <rect x="374" y="440" width="322" height="174" rx="22" fill="#0C1928" stroke="#263A52" filter="url(#shadow)" />
  <rect x="375" y="441" width="320" height="172" rx="21" fill="none" stroke="#FFFFFF" stroke-opacity=".035" />
  <rect x="374" y="462" width="3" height="130" rx="1.5" fill="#FBBF24" />
  <text x="398" y="469" class="micro" fill="#FBBF24" text-anchor="start" opacity="1">03 / 决策约束</text>
  <text x="398" y="502" class="cardTitle" fill="#F4F7FB" text-anchor="start" opacity="1">DeliberationOutcome</text>
  <text x="398" y="531" class="body" fill="#96A8BE" text-anchor="start" opacity="1">Bull / Bear · 三态风控</text>
  <text x="398" y="555" class="body" fill="#96A8BE" text-anchor="start" opacity="1">显式弃权 · A 股交易约束</text>
  <rect x="716" y="440" width="322" height="174" rx="22" fill="#0C1928" stroke="#263A52" filter="url(#shadow)" />
  <rect x="717" y="441" width="320" height="172" rx="21" fill="none" stroke="#FFFFFF" stroke-opacity=".035" />
  <rect x="716" y="462" width="3" height="130" rx="1.5" fill="#38BDF8" />
  <text x="740" y="469" class="micro" fill="#38BDF8" text-anchor="start" opacity="1">04 / 验证归因</text>
  <text x="740" y="502" class="cardTitle" fill="#F4F7FB" text-anchor="start" opacity="1">ValidationResult</text>
  <text x="740" y="531" class="body" fill="#96A8BE" text-anchor="start" opacity="1">同路径回放 · 事件统计</text>
  <text x="740" y="555" class="body" fill="#96A8BE" text-anchor="start" opacity="1">组合报告 · 结构化筛选</text>
  <path d="M696 331L716 331" fill="none" stroke="#A78BFA" stroke-width="2.2" marker-end="url(#arrow)" />
  <path d="M877 418V430H535V440" fill="none" stroke="#FBBF24" stroke-width="2.2" marker-end="url(#arrow)" opacity="1" />
  <path d="M696 527L716 527" fill="none" stroke="#38BDF8" stroke-width="2.2" marker-end="url(#arrow)" />
  <path d="M877 614V650H535V625" fill="none" stroke="#FBBF24" stroke-width="2.2" stroke-dasharray="8 8" marker-end="url(#arrow)" opacity="1" />
  <rect x="566" y="636" width="312" height="28" rx="14" fill="#FBBF24" fill-opacity="0.12" stroke="#FBBF24" stroke-opacity=".38" />
  <text x="722.0" y="655" class="small" fill="#FBBF24" text-anchor="middle" opacity="1">统计证据反哺规则 · 不自动训练模型</text>
  <path d="M339 451L374 451" fill="none" stroke="#2DD4BF" stroke-width="2.2" marker-end="url(#arrow)" />
  <text x="356.5" y="435" class="small" fill="#2DD4BF" text-anchor="middle" opacity="1">规范化</text>
  <circle cx="1081" cy="210" r="14" fill="#FB7185" fill-opacity=".16" stroke="#FB7185" stroke-opacity=".45" />
  <text x="1081" y="214" class="navNum" fill="#FB7185" text-anchor="middle" opacity="1">C</text>
  <text x="1105" y="214" class="micro" fill="#FB7185" text-anchor="start" opacity="1">系统级保证</text>
  <rect x="1070" y="232" width="306" height="274" rx="22" fill="#0C1928" stroke="#263A52" filter="url(#shadow)" />
  <rect x="1071" y="233" width="304" height="272" rx="21" fill="none" stroke="#FFFFFF" stroke-opacity=".035" />
  <rect x="1070" y="254" width="3" height="230" rx="1.5" fill="#FB7185" />
  <text x="1094" y="261" class="micro" fill="#FB7185" text-anchor="start" opacity="1">CONTROL PLANE</text>
  <text x="1094" y="294" class="cardTitle" fill="#F4F7FB" text-anchor="start" opacity="1">可复现与可审计</text>
  <text x="1094" y="323" class="body" fill="#96A8BE" text-anchor="start" opacity="1">RunManifest / DecisionLedger</text>
  <text x="1094" y="347" class="body" fill="#96A8BE" text-anchor="start" opacity="1">Checkpoint · SQLite WAL</text>
  <text x="1094" y="371" class="body" fill="#96A8BE" text-anchor="start" opacity="1">Retry / Recovery · 成本账本</text>
  <text x="1094" y="395" class="body" fill="#96A8BE" text-anchor="start" opacity="1">证据不足时显式 abstain</text>
  <text x="1094" y="419" class="body" fill="#96A8BE" text-anchor="start" opacity="1">API / SDK / CLI / Web 同契约</text>
  <rect x="1070" y="526" width="306" height="144" rx="22" fill="#0C1928" stroke="#263A52" filter="url(#shadow)" />
  <rect x="1071" y="527" width="304" height="142" rx="21" fill="none" stroke="#FFFFFF" stroke-opacity=".035" />
  <rect x="1070" y="548" width="3" height="100" rx="1.5" fill="#FBBF24" />
  <text x="1094" y="555" class="micro" fill="#FBBF24" text-anchor="start" opacity="1">GOVERNANCE</text>
  <text x="1094" y="588" class="cardTitle" fill="#F4F7FB" text-anchor="start" opacity="1">清晰的责任边界</text>
  <text x="1094" y="617" class="body" fill="#96A8BE" text-anchor="start" opacity="1">研究系统，不自动下单</text>
  <text x="1094" y="641" class="body" fill="#96A8BE" text-anchor="start" opacity="1">调用方显式组合委员会与组合账本</text>
  <text x="64" y="785" class="micro" fill="#96A8BE" text-anchor="start" opacity="1">研究闭环导航</text>
  <text x="200" y="785" class="small" fill="#6F829A" text-anchor="start" opacity="1">每一脑区交付一个可验证产物，最终回到下一轮证据与规则</text>
  <rect x="64" y="806" width="240" height="52" rx="16" fill="url(#activeNav)" stroke="#38BDF8" stroke-opacity=".64" />
  <text x="86" y="838" class="navNum" fill="#38BDF8" text-anchor="start" opacity="1">01</text>
  <text x="119" y="838" class="nav" fill="#F4F7FB" text-anchor="start" opacity="1">系统总览</text>
  <path d="M309 832H315" stroke="#38BDF8" stroke-width="1.7" marker-end="url(#arrow)" />
  <rect x="320" y="806" width="240" height="52" rx="16" fill="#0B1726" stroke="#263A52" />
  <text x="342" y="838" class="navNum" fill="#647890" text-anchor="start" opacity="1">02</text>
  <text x="375" y="838" class="nav" fill="#B7C4D4" text-anchor="start" opacity="1">证据平面</text>
  <path d="M565 832H571" stroke="#263A52" stroke-width="1.7" marker-end="url(#arrow)" />
  <rect x="576" y="806" width="240" height="52" rx="16" fill="#0B1726" stroke="#263A52" />
  <text x="598" y="838" class="navNum" fill="#647890" text-anchor="start" opacity="1">03</text>
  <text x="631" y="838" class="nav" fill="#B7C4D4" text-anchor="start" opacity="1">研究编排</text>
  <path d="M821 832H827" stroke="#263A52" stroke-width="1.7" marker-end="url(#arrow)" />
  <rect x="832" y="806" width="240" height="52" rx="16" fill="#0B1726" stroke="#263A52" />
  <text x="854" y="838" class="navNum" fill="#647890" text-anchor="start" opacity="1">04</text>
  <text x="887" y="838" class="nav" fill="#B7C4D4" text-anchor="start" opacity="1">决策约束</text>
  <path d="M1077 832H1083" stroke="#263A52" stroke-width="1.7" marker-end="url(#arrow)" />
  <rect x="1088" y="806" width="240" height="52" rx="16" fill="#0B1726" stroke="#263A52" />
  <text x="1110" y="838" class="navNum" fill="#647890" text-anchor="start" opacity="1">05</text>
  <text x="1143" y="838" class="nav" fill="#B7C4D4" text-anchor="start" opacity="1">验证反馈</text>
</svg>
